<svg width="810" height="328" viewBox="0 0 810 328" fill="none" xmlns="http://www.w3.org/2000/svg">
<path d="M509.07 155.186C497.525 156.807 485.927 158.054 474.277 158.926C385.339 165.433 301.79 162.149 225.956 149.257C146.346 135.496 58.0063 161.641 0.814798 215.86L0.0459817 215.204C57.4677 160.699 146.073 134.516 225.949 148.241C301.65 161.151 385.199 164.435 474.004 157.946C537.633 153.339 597.922 137.494 653.181 110.904C709.582 83.7712 758.219 46.6591 797.888 0.626902L798.639 1.15763C758.855 47.3332 710.103 84.5888 653.57 111.74C608.585 133.452 560.026 148.031 509.07 155.186ZM592.235 145.163C614.543 137.323 635.535 126.869 654.935 116.638C678.619 104.151 706.251 88.9469 732.064 70.4354C759.86 50.6276 782.616 29.619 799.853 7.85826L799.101 7.32754C781.997 29.0696 759.242 50.0783 731.561 69.7427C705.73 88.1293 678.098 103.333 654.547 115.801C635.28 126.014 614.287 136.469 591.98 144.309C558.062 156.196 520.366 162.38 469.769 164.394C465.868 164.56 461.967 164.726 457.933 164.911C443.524 165.407 428.601 166.103 413.961 166.886C403.753 167.428 393.563 168.096 383.77 168.707C358.427 170.357 334.41 171.82 309.67 171.986C301.833 172.068 293.297 171.994 284.674 171.296C271.23 170.003 257.912 167.674 244.886 164.541C237.883 162.852 230.463 161.094 222.443 158.912C200.779 153.047 178.323 150.22 155.776 150.586C150.098 150.62 144.206 151.065 138.615 151.723C133.307 152.468 127.919 153.607 122.832 154.957C75.6996 167.173 32.7989 192.156 1.90098 225.505L2.66979 226.16C33.4526 192.955 76.2381 168.116 123.105 155.937C128.325 154.568 133.581 153.448 138.756 152.721C144.347 152.064 150.106 151.637 155.784 151.603C178.331 151.236 200.654 154.083 222.185 159.966C230.206 162.148 237.625 163.906 244.628 165.595C257.672 168.853 271.123 171.163 284.566 172.457C293.322 173.136 301.725 173.229 309.695 173.127C334.435 172.962 358.452 171.499 383.795 169.849C393.72 169.219 403.911 168.551 413.986 168.027C428.626 167.244 443.566 166.673 457.958 166.052C461.859 165.886 465.76 165.72 469.794 165.536C491.059 164.713 510.043 163.066 527.559 160.606C551.56 157.109 572.511 152.132 592.235 145.163ZM589.951 154.9C609.357 147.594 626.404 137.948 644.574 127.635C647.088 126.265 649.584 124.769 652.097 123.398C658.496 119.828 665.143 116.095 671.56 112.649C691.536 101.701 712.123 90.2855 731.437 77.5217C762.498 56.8738 785.173 36.2581 800.916 14.4527L800.032 13.9407C784.405 35.6026 761.729 56.2183 730.783 76.7228C711.602 89.468 690.997 100.759 671.039 111.832C664.64 115.402 658.108 118.991 651.576 122.581C649.063 123.951 646.567 125.447 644.053 126.818C625.998 136.987 608.969 146.758 589.545 153.939C549.707 168.948 506.213 170.474 465.135 170.898C443.915 171.078 426.101 171.416 408.311 172.896C389.708 174.363 371.776 176.753 354.392 179.194C338.053 181.361 321.2 183.727 304.472 185.058C296.059 185.857 287.709 186.139 279.253 185.672C265.181 184.721 251.918 180.858 239.848 176.827C233.04 174.602 225.781 172.058 218.504 169.39C196.373 161.173 175.398 156.356 154.365 154.983C148.616 154.518 142.805 154.57 137.064 155.122C131.623 155.886 126.102 157.043 120.917 158.661C73.8979 172.643 31.9943 199.903 2.77441 235.561L3.52567 236.092C32.648 200.702 74.4189 173.461 121.323 159.622C126.508 158.004 131.896 156.865 137.337 156.102C143.06 155.425 148.739 155.391 154.488 155.857C175.521 157.23 196.346 161.94 218.344 170.176C225.621 172.844 232.88 175.388 239.706 177.737C251.908 181.75 265.304 185.595 279.394 186.67C287.849 187.137 296.332 186.837 304.745 186.038C321.473 184.707 338.326 182.341 354.665 180.174C372.067 177.858 389.981 175.342 408.584 173.875C426.391 172.52 444.189 172.057 465.409 171.877C489.203 171.718 513.873 171.053 538.157 167.643C555.673 165.184 573.129 161.333 589.951 154.9ZM587.8 164.618C604.835 157.772 620.139 148.244 634.947 139.039C639.673 136.085 644.4 133.131 649.277 130.283C661.509 122.967 674.475 116.057 686.928 109.346C701.399 101.589 716.498 93.4885 730.677 84.6266C764.162 63.8928 787.351 43.0778 801.731 21.2093L800.847 20.6972C786.599 42.5471 763.376 63.1126 730.024 83.8277C715.826 92.5648 700.86 100.646 686.407 108.529C673.954 115.24 660.988 122.15 648.756 129.466C643.879 132.314 639.037 135.411 634.426 138.222C618.989 147.769 604.314 156.955 587.394 163.657C548.325 179.321 506.656 178.428 462.528 177.371L460.9 177.345C443.529 176.985 423.07 176.804 403.059 178.85C381.324 181.138 360.833 185.542 341.006 189.853C327.479 192.77 313.571 195.868 299.672 198.074C291.365 199.622 282.802 200.316 274.364 199.974C260.309 199.148 247.321 194.355 235.226 189.182C229.029 186.489 222.531 183.584 214.831 179.83C192.296 168.743 173.419 162.487 153.219 159.343C147.533 158.36 141.669 158.038 135.777 158.484C130.186 159.141 124.701 160.548 119.418 162.435C72.3793 178.201 31.4726 207.738 4.21375 245.793L5.09771 246.305C32.1263 208.537 72.9178 179.143 119.957 163.377C125.107 161.509 130.61 160.227 136.051 159.463C141.809 159.036 147.541 159.377 153.227 160.36C173.143 163.416 192.154 169.654 214.555 180.76C222.256 184.514 228.771 187.543 234.951 190.111C247.046 195.284 260.202 200.308 274.371 200.99C282.942 201.314 291.505 200.621 299.945 199.054C313.844 196.848 327.885 193.731 341.28 190.833C361.107 186.522 381.464 182.137 403.2 179.848C423.21 177.802 443.651 177.859 460.908 178.362L462.535 178.388C490.636 179.023 517.64 179.558 543.782 175.888C558.795 173.907 573.464 170.448 587.8 164.618ZM585.649 174.335C601.489 167.658 615.431 158.066 629.01 148.78C634.693 144.928 640.606 140.789 646.704 137.007C661.991 127.353 678.514 118.798 694.56 110.692C706.419 104.574 718.544 98.418 730.183 91.6942C765.844 71.0367 789.563 50.1471 802.944 27.9099L802.06 27.3978C788.812 49.6164 765.057 70.2564 729.662 90.8767C718.023 97.6005 705.916 103.881 694.039 109.875C678.011 118.106 661.487 126.66 646.201 136.314C640.102 140.097 634.189 144.235 628.506 148.087C614.432 157.697 601.101 166.822 585.393 173.481C548.88 189.041 509.477 186.939 467.88 184.636C464.192 184.39 460.388 184.288 456.7 184.043C439.258 183.183 418.596 182.522 397.727 185.197C374.187 188.121 352.65 194.707 331.892 201.057C319.814 204.662 307.374 208.572 294.925 211.465C287.334 213.294 278.531 215.166 269.412 214.792C254.844 214.166 241.663 208 230.657 201.911C224.655 198.682 218.467 195.098 211.343 190.627C194.575 180.13 175.799 169.787 152.409 164.165C146.768 162.539 140.868 161.968 134.809 162.182C129.086 162.859 123.467 164.284 118.22 166.42C71.0108 183.864 30.9685 215.698 5.78579 256.006L6.66975 256.518C31.87 216.335 71.6645 184.663 118.625 167.381C123.873 165.245 129.359 163.838 134.95 163.181C140.726 162.878 146.643 163.575 152.134 165.094C175.391 170.735 194.034 181.096 210.784 191.468C218.041 195.921 224.229 199.505 230.232 202.734C241.37 208.805 254.702 215.076 269.402 215.685C278.654 216.04 287.59 214.149 295.198 212.444C307.762 209.408 320.22 205.623 332.298 202.018C353.056 195.668 374.478 189.225 398.001 186.177C418.737 183.52 439.266 184.2 456.708 185.06C460.396 185.305 464.199 185.407 467.888 185.653C495.165 187.167 521.345 188.581 546.558 185.041C559.811 183.053 572.888 179.817 585.649 174.335ZM583.365 184.072C598.639 177.219 611.75 167.49 624.347 157.959C630.588 153.266 637.077 148.41 643.884 143.892C660.95 132.462 679.96 123.303 698.457 114.344C708.714 109.341 719.219 104.176 729.423 98.7991C767.145 78.3612 791.528 57.3785 803.874 34.523L803.008 34.1357C790.759 56.723 766.508 77.6871 728.902 97.9815C718.848 103.465 708.193 108.524 697.936 113.527C679.439 122.486 660.447 131.769 643.248 143.218C636.441 147.736 629.952 152.592 623.711 157.285C611.096 166.691 598.003 176.545 582.976 183.236C547.71 199.003 509.759 195.679 469.331 192.067C463.715 191.583 457.816 191.012 452.067 190.546C434.289 189.225 413.309 188.226 392.095 191.332C367.448 195.047 345.378 203.617 324.22 211.932C313.062 216.298 301.522 220.845 289.727 224.537C282.206 226.865 273.491 229.361 264.124 229.15C249.043 228.722 235.634 220.935 225.77 214.304C220.095 210.52 214.067 206.149 207.404 201.104C191.319 188.73 173.704 176.062 150.998 168.562C145.887 166.862 139.83 165.167 133.39 165.563C127.349 165.902 121.57 168.113 116.57 170.087C69.5898 189.153 30.5445 223.264 6.92462 266.025L7.79104 266.413C31.4284 223.777 70.0932 189.846 116.959 170.923C121.826 168.968 127.471 166.775 133.513 166.436C139.82 166.059 145.86 167.629 150.705 169.366C173.261 176.76 190.743 189.447 206.81 201.697C213.474 206.741 219.502 211.112 225.176 214.896C235.191 221.633 248.733 229.402 264.097 229.917C273.614 230.235 282.462 227.72 290.098 225.248C301.893 221.556 313.432 217.01 324.573 212.519C345.732 204.204 367.651 195.528 392.183 191.956C413.247 188.744 434.244 189.868 451.889 191.207C457.638 191.673 463.52 192.119 469.154 192.728C496.288 195.153 522.326 197.477 547.274 193.974C559.65 192.491 571.648 189.28 583.365 184.072ZM285.351 238.639C296.492 234.148 307.528 228.909 318.033 223.744C339.309 213.376 361.345 202.648 386.984 198.285C408.791 194.587 430.806 196.204 447.707 198.029C454.853 198.807 462.017 199.71 469.03 200.507C508.837 205.479 546.566 210.106 581.213 193.79C596.072 186.868 608.431 176.608 620.578 166.759C627.129 161.386 634.044 155.707 641.196 150.758C659.547 137.875 680.529 128.313 700.866 118.968C710.017 114.757 719.548 110.365 728.796 105.885C768.463 85.8105 793.359 64.6285 804.955 41.2423L804.088 40.855C792.608 64.0978 767.827 85.1364 728.408 105.049C719.31 109.635 709.779 114.027 700.611 118.113C680.274 127.458 659.159 137.039 640.675 149.941C633.408 155.033 626.609 160.568 619.942 166.085C607.928 175.915 595.551 186.051 580.825 192.954C546.443 209.233 508.847 204.587 469.173 199.596C462.142 198.675 454.978 197.772 447.849 197.119C430.948 195.293 408.801 193.695 386.861 197.411C361.222 201.775 339.053 212.522 317.645 222.907C307.14 228.072 296.104 233.312 284.963 237.803C277.016 240.954 268.354 243.825 259.137 243.719C243.676 243.472 230.656 234.612 221.05 226.927C215.703 222.588 210.154 217.769 203.765 211.795C186.791 195.982 171.044 182.161 150.02 173.152C144.989 171.059 138.995 168.847 132.272 169.155C126.08 169.388 120.204 171.867 115.222 173.967C67.8408 194.997 29.9076 231.243 8.36396 276.257L9.23037 276.644C30.6765 231.898 68.3442 195.69 115.477 174.821C120.442 172.597 126.203 170.262 132.262 170.047C138.719 169.777 144.564 171.883 149.594 173.976C170.468 182.878 186.198 196.575 203.172 212.387C209.711 218.467 215.128 223.305 220.457 227.519C230.081 235.329 243.25 244.296 259.127 244.611C261.568 244.65 263.975 244.439 266.363 244.104C273.016 243.297 279.325 241.012 285.351 238.639ZM280.454 251.923C291.224 246.721 301.739 240.664 311.874 234.788C333.134 222.387 355.287 209.606 381.502 204.526C403.637 200.273 426.12 202.333 443.224 204.639C451.502 205.767 459.797 207.02 467.96 208.292C507.412 214.586 544.785 220.535 578.947 203.651C593.505 196.517 605.396 185.814 616.942 175.54C623.804 169.487 630.763 163.166 638.376 157.644C657.63 143.489 680.355 133.809 702.435 124.347C710.86 120.746 719.665 116.965 728.17 112.972C769.171 93.7273 795.324 71.8599 805.885 47.8554L805.019 47.4681C794.422 71.223 768.517 92.9284 727.764 112.011C719.392 115.985 710.569 119.642 702.162 123.367C680.082 132.829 657.224 142.528 637.988 156.808C630.392 162.455 623.283 168.67 616.571 174.829C605.158 185.084 593.25 195.663 578.824 202.778C544.91 219.5 507.82 213.638 468.368 207.344C460.205 206.072 451.892 204.695 443.614 203.566C426.377 201.279 403.895 199.219 381.494 203.509C355.014 208.626 332.86 221.407 311.468 233.827C301.333 239.703 290.819 245.76 280.048 250.962C272.057 254.756 263.482 258.251 254.132 258.164C237.875 258.029 224.875 247.384 216.428 239.282C210.322 233.395 204.748 227.434 200.092 222.235C185.471 205.838 170.347 188.748 148.874 177.512C143.906 174.902 137.859 172.315 130.968 172.392C124.626 172.519 118.767 175.123 113.687 177.49C65.8889 200.361 28.9703 239.009 9.75065 286.114L10.7498 286.483C29.8543 239.521 66.6753 201.141 114.208 178.308C119.156 175.959 125.014 173.355 131.091 173.265C137.698 173.101 143.613 175.706 148.431 178.211C169.753 189.341 184.86 206.306 199.348 222.721C204.004 227.921 209.596 234.006 215.684 239.768C224.282 247.977 237.449 258.852 254.105 258.931C256.131 258.901 258.006 258.765 259.996 258.486C267.197 257.729 274.1 254.851 280.454 251.923ZM275.672 265.064C286.204 259.132 296.331 252.239 306.094 245.651C327.339 231.217 349.194 216.315 376.135 210.623C398.598 205.815 421.434 208.462 438.856 211.106C447.983 212.496 457.312 214.367 466.209 216.045C505.571 223.624 542.855 230.858 576.796 213.369C591.301 205.861 602.742 194.839 613.801 183.997C620.708 177.302 627.863 170.444 635.538 164.404C655.43 149.014 679.65 139.379 703.092 129.98C711.039 126.829 719.366 123.496 727.26 119.97C770.224 101.214 796.89 79.1471 806.815 54.4686L805.816 54.0999C796.122 78.4916 769.57 100.415 726.854 119.009C718.942 122.411 710.748 125.724 702.686 129.019C679.112 138.437 654.777 148.215 634.884 163.605C627.076 169.664 619.922 176.522 613.015 183.217C601.938 193.934 590.497 204.956 576.257 212.427C542.697 229.735 505.563 222.607 466.334 215.009C457.305 213.35 448.108 211.461 438.981 210.07C421.541 207.302 398.573 204.674 375.844 209.519C348.771 215.229 326.65 230.168 305.423 244.727C295.66 251.315 285.533 258.208 275.001 264.141C267.477 268.378 258.592 272.552 248.862 272.646C236.275 272.632 224.085 265.818 211.558 251.799C205.763 245.233 200.631 238.573 196.303 232.819L194.643 230.635C180.803 212.092 167.784 194.579 147.613 182.015C143.441 179.293 137.005 175.87 129.699 175.878C123.339 175.881 117.251 178.771 112.206 181.388C63.8921 206.367 28.0857 247.149 11.0573 296.365L12.0388 296.608C28.9696 247.661 64.6609 207.023 112.727 182.206C117.772 179.589 123.613 176.86 129.84 176.877C136.863 176.781 143.166 180.222 147.188 182.839C167.191 195.172 180.209 212.684 193.899 231.121L195.56 233.305C199.888 239.059 205.019 245.719 210.815 252.285C223.51 266.535 236 273.561 248.985 273.519C250.613 273.545 252.205 273.321 253.797 273.098C261.812 272.354 269.273 268.635 275.672 265.064ZM270.757 278.224C281.051 271.562 290.94 263.938 300.563 256.352C321.544 240.046 343.367 222.986 370.768 216.721C388.587 212.565 408.249 212.858 434.506 217.697C444.366 219.493 454.43 221.77 464.077 223.978C503.632 232.93 540.941 241.306 574.644 223.087C588.982 215.348 600.069 203.739 610.926 192.417C617.895 185.204 624.962 177.722 632.983 171.252C653.398 154.771 678.981 145.199 703.669 136.007C711.253 133.16 719.102 130.277 726.783 127.163C771.71 108.894 799.04 86.7341 808.046 61.294L807.065 61.0501C798.156 86.2221 770.924 108.114 726.395 126.327C718.846 129.422 710.997 132.306 703.414 135.152C678.61 144.487 652.895 154.078 632.347 170.578C624.326 177.048 617.126 184.548 610.175 191.887C599.433 203.065 588.346 214.674 574.141 222.394C540.801 240.308 503.642 232.038 464.37 223.174C454.722 220.966 444.659 218.689 434.666 216.911C408.277 212.091 388.614 211.798 370.53 215.991C342.881 222.418 321.059 239.478 299.945 255.803C290.437 263.246 280.433 271.012 270.254 277.531C262.305 282.592 253.773 287.352 243.91 287.465C231.093 287.737 218.63 279.944 206.856 264.547C201.389 257.426 196.55 249.962 192.55 243.652L189.945 239.565C177.539 219.676 165.822 200.835 146.537 186.874C141.88 183.584 135.657 179.75 128.483 179.739C121.973 179.635 115.902 182.651 110.76 185.536C62.8691 211.6 27.0234 255.951 12.5317 306.846L13.5133 307.09C27.9073 256.463 63.6555 212.381 111.413 186.335C116.44 183.593 122.379 180.596 128.624 180.737C135.532 180.785 141.604 184.513 146.112 187.698C165.229 201.427 176.946 220.268 189.201 240.051L191.806 244.139C195.806 250.448 200.645 257.912 206.113 265.033C218.054 280.661 230.8 288.542 243.9 288.357C245.245 288.295 246.59 288.234 248.049 288.029C256.392 286.73 264.18 282.455 270.757 278.224ZM265.825 291.259C275.881 283.866 285.514 275.388 294.917 267.197C315.732 248.751 337.292 229.819 365.25 222.713C383.415 218.126 403.361 218.507 429.988 224.057C440.449 226.278 451.246 228.961 461.495 231.594C501.093 241.812 538.577 251.436 572.193 232.592C586.495 224.604 597.362 212.39 607.75 200.625C614.632 192.788 621.761 184.788 629.995 177.907C650.685 160.496 677.515 151.13 703.433 142.02C710.786 139.461 718.387 136.739 725.838 133.912C772.578 116.025 800.439 93.7905 808.658 67.57L807.677 67.3261C799.617 92.7607 771.163 115.587 725.432 132.951C718.114 135.76 710.495 138.356 703.159 141.041C677.109 150.17 650.147 159.554 629.341 177.108C621.107 183.99 613.996 192.114 606.982 199.969C596.593 211.734 585.842 223.805 571.672 231.775C538.437 250.438 501.085 240.795 461.638 230.683C451.256 228.069 440.574 225.243 429.98 223.04C403.22 217.509 383.124 217.022 364.827 221.627C336.603 228.771 314.928 247.846 293.98 266.311C284.71 274.483 275.077 282.961 265.021 290.354C257.523 295.733 248.698 301.298 238.588 301.572C222.002 301.992 209.528 288.348 201.934 276.69C196.777 268.889 192.398 260.851 188.726 253.987C187.614 251.853 186.502 249.719 185.39 247.584C174.691 227.328 163.773 206.467 145.259 191.253C141.114 187.763 134.653 183.199 127.179 182.976C120.519 182.766 114.35 186.05 109.226 189.059C60.8021 217.107 26.086 263.717 13.8033 316.846L14.7848 317.09C27.1203 264.335 61.7387 217.994 109.897 189.983C115.022 186.973 120.942 183.852 127.337 184.099C134.528 184.234 140.839 188.692 144.833 192.076C163.064 207.203 174.116 228.045 184.664 248.195C185.776 250.329 186.888 252.464 188 254.598C191.672 261.462 196.068 269.625 201.225 277.426C208.969 289.189 221.762 303.171 238.745 302.695C239.957 302.652 241.036 302.628 242.231 302.46C251.254 301.193 259.203 296.133 265.825 291.259ZM261.06 304.524C271.011 296.384 280.521 287.032 289.553 278.13C310.106 257.812 331.499 236.74 359.901 228.935C391.833 220.253 425.965 230.093 458.833 239.602C498.756 251.174 536.416 262.046 570.059 242.435C584.326 234.197 594.84 221.396 605.008 209.026C611.819 200.69 618.993 192.048 627.174 184.792C648.255 166.309 676.464 157.131 703.647 148.352C710.77 146.08 718.008 143.664 725.096 141.142C758.482 129.329 800.299 108.188 809.624 74.4327L808.642 74.1888C799.398 107.551 757.961 128.511 724.69 140.181C717.602 142.703 710.346 144.994 703.241 147.391C675.926 156.189 647.717 165.366 626.388 184.012C618.074 191.286 610.9 199.928 604.106 208.389C593.938 220.759 583.54 233.417 569.405 241.636C536.126 260.941 498.598 250.051 458.975 238.691C425.825 229.095 391.56 219.273 359.362 227.993C330.695 235.835 309.169 256.925 288.502 277.387C279.354 286.432 269.959 295.641 260.008 303.781C253.094 309.46 243.861 315.973 233.353 316.304C215.44 316.91 202.872 299.716 196.966 289.475C191.025 278.985 186.057 267.722 181.125 256.708C171.578 235.018 161.661 212.617 143.883 195.899C139.818 192.017 133.42 186.935 125.663 186.624C119.003 186.414 112.719 189.841 107.479 192.995C83.5626 207.677 62.4444 227.82 46.4972 251.053C30.6477 274.019 19.7389 300.362 14.8445 327.134L15.8085 327.253C20.7205 300.606 31.5317 274.531 47.2485 251.584C63.6113 228.419 84.6143 208.42 108.415 193.881C113.655 190.728 119.674 187.338 126.069 187.585C131.782 187.801 137.334 190.711 143.572 196.579C161.315 213.047 171.1 235.467 180.629 257.032C185.429 268.065 190.396 279.328 196.47 289.799C202.412 300.289 215.165 317.839 233.741 317.14C234.687 317.134 235.749 316.985 236.678 316.855C246.25 315.638 254.624 309.754 261.06 304.524Z" fill="#FAFAFA"/>
</svg>
